<svg xmlns="http://www.w3.org/2000/svg" viewBox="0 0 128 128"><defs><style>.cls-1{isolation:isolate;}.cls-2{mix-blend-mode:multiply;}.cls-3{fill:#e2bc00;}.cls-4{fill:#093357;}.cls-5{fill:#7569b0;}.cls-6{fill:#d4dfe9;}.cls-7{fill:none;stroke:#093357;stroke-linecap:round;stroke-linejoin:round;stroke-width:4px;}.cls-8{fill:#489de3;}</style></defs><title>person</title><g class="cls-1"><g id="icons" class="cls-2"><path class="cls-3" d="M45,79c-15,4-21,6-21,16v19a2,2,0,0,0,2,2H64V84Z"/><path class="cls-3" d="M83,79c15,4,21,6,21,16v19a2,2,0,0,1-2,2H64V84Z"/><circle class="cls-4" cx="64" cy="89" r="5"/><path class="cls-5" d="M85.463,44c6.064-9.813,8.085-24.533-7.074-26.5-1.011-5.888-9.908-6.57-17.7-4.306-5.12,1.488-13.634,1.888-18.117-.342a1,1,0,0,0-1.445.636c-.62,2.549-1.478,8.125,2.382,9.643-7.074,2.981-7.074,13.91-1.5,19.884"/><path class="cls-6" d="M84,47c0-16.016-2-29-20-29S44,30.984,44,47s6,29,20,29S84,63.016,84,47Z"/><circle class="cls-6" cx="44" cy="45" r="4"/><circle class="cls-6" cx="84" cy="45" r="4"/><path class="cls-5" d="M44.006,40.375C44.132,33.705,46.45,29.03,61,30c10.894.726,13.349-2.767,13.876-4.734a1,1,0,0,1,1.457-.621C78.839,26.1,84,30.4,84,41l2-4S84,16,61,16c-8,0-21,9-18,24Z"/><path class="cls-7" d="M63,64.8A6.915,6.915,0,0,0,71,61"/><rect class="cls-6" x="52" y="70" width="24" height="14"/><path class="cls-8" d="M52,77l-7,2L57.185,91.185a1,1,0,0,0,1.507-.107L64,84Z"/><path class="cls-8" d="M76,77l7,2L70.815,91.185a1,1,0,0,1-1.507-.107L64,84Z"/><path class="cls-4" d="M64,90l-5.953,18.276a.963.963,0,0,0,.156.89l4.982,6.44a1.038,1.038,0,0,0,1.629,0l4.982-6.44a.963.963,0,0,0,.156-.89Z"/></g></g></svg>